{
  "accessors": [
    {
      "bufferView": 1,
      "componentType": 5126,
      "count": 12246,
      "max": [
        4.4541001319885254,
        2.1105000972747803,
        11.580900192260742
      ],
      "min": [
        -4.4541001319885254,
        -2.1105000972747803,
        -0.017699999734759331
      ],
      "type": "VEC3"
    },
    {
      "bufferView": 1,
      "byteOffset": 146952,
      "componentType": 5126,
      "count": 12246,
      "max": [
        0.99999362230300903,
        0.9995429515838623,
        0.99978941679000854
      ],
      "min": [
        -0.99984824657440186,
        -0.9995429515838623,
        -0.99999994039535522
      ],
      "type": "VEC3"
    },
    {
      "bufferView": 0,
      "componentType": 5125,
      "count": 73392,
      "max": [
        12245
      ],
      "min": [
        0
      ],
      "type": "SCALAR"
    }
  ],
  "asset": {
    "extras": {
      "author": "LOUIS (https://sketchfab.com/louis)",
      "license": "CC-BY-4.0 (http://creativecommons.org/licenses/by/4.0/)",
      "source": "https://sketchfab.com/models/99a623a4cbd84b8488050ac8162705b5",
      "title": "CHOCOLATE EASTER BUNNY"
    },
    "generator": "Sketchfab-3.52.1",
    "version": "2.0"
  },
  "bufferViews": [
    {
      "buffer": 0,
      "byteLength": 293568,
      "byteOffset": 0,
      "name": "floatBufferViews",
      "target": 34963
    },
    {
      "buffer": 0,
      "byteLength": 293904,
      "byteOffset": 293568,
      "byteStride": 12,
      "name": "floatBufferViews",
      "target": 34962
    }
  ],
  "buffers": [
    {
      "byteLength": 587472,
      "uri": "scene.bin"
    }
  ],
  "materials": [
    {
      "doubleSided": true,
      "emissiveFactor": [
        0,
        0,
        0
      ],
      "name": "Scene_-_Root",
      "pbrMetallicRoughness": {
        "baseColorFactor": [
          0.076185381499999996,
          0.027320891600000001,
          0.021219010399999998,
          1
        ],
        "metallicFactor": 0.46000000000000002,
        "roughnessFactor": 0.5
      }
    }
  ],
  "meshes": [
    {
      "primitives": [
        {
          "attributes": {
            "NORMAL": 1,
            "POSITION": 0
          },
          "indices": 2,
          "material": 0,
          "mode": 4
        }
      ]
    }
  ],
  "nodes": [
    {
      "children": [
        1
      ],
      "name": "RootNode (gltf orientation matrix)",
      "rotation": [
        -0.70710678118654746,
        -0,
        -0,
        0.70710678118654757
      ]
    },
    {
      "children": [
        2
      ],
      "name": "RootNode (model correction matrix)"
    },
    {
      "children": [
        3
      ],
      "name": "5306745.stl.cleaner"
    },
    {
      "mesh": 0,
      "name": ""
    }
  ],
  "scene": 0,
  "scenes": [
    {
      "name": "OSG_Scene",
      "nodes": [
        0
      ]
    }
  ]
}

